<svg xmlns="http://www.w3.org/2000/svg" viewBox="0 0 400 380" width="300">
  <defs>
    <linearGradient id="mg" x1="0%" y1="0%" x2="100%" y2="100%">
      <stop offset="0%" stop-color="#4f46e5"/><stop offset="100%" stop-color="#7c3aed"/>
    </linearGradient>
    <linearGradient id="ml" x1="0%" y1="0%" x2="100%" y2="100%">
      <stop offset="0%" stop-color="#6366f1"/><stop offset="100%" stop-color="#8b5cf6"/>
    </linearGradient>
    <linearGradient id="glow" x1="50%" y1="0%" x2="50%" y2="100%">
      <stop offset="0%" stop-color="#fef08a" stop-opacity="0.5"/>
      <stop offset="100%" stop-color="#fef08a" stop-opacity="0"/>
    </linearGradient>
    <filter id="shadow">
      <feDropShadow dx="0" dy="4" stdDeviation="6" flood-color="#4f46e5" flood-opacity="0.25"/>
    </filter>
  </defs>
  <ellipse cx="200" cy="170" rx="110" ry="90" fill="url(#glow)"/>
  <rect x="110" y="190" width="180" height="105" rx="10" fill="url(#mg)" filter="url(#shadow)"/>
  <rect x="140" y="186" width="120" height="8" rx="4" fill="#3730a3"/>
  <path d="M 110 190 L 110 162 Q 110 143 128 138 L 272 138 Q 290 143 290 162 L 290 190 Z" fill="url(#ml)" filter="url(#shadow)"/>
  <rect x="180" y="186" width="40" height="12" rx="3" fill="#fbbf24"/>
  <circle cx="200" cy="189" r="3" fill="#d97706"/>
  <rect x="155" y="108" width="7" height="52" rx="2" fill="#f59e0b" transform="rotate(-12, 158, 135)"/>
  <g transform="translate(228, 112) rotate(18)">
    <rect x="-4" y="0" width="7" height="40" rx="3" fill="#34d399"/>
    <circle cx="0" cy="3" r="6" fill="none" stroke="#34d399" stroke-width="2.5"/>
  </g>
  <circle cx="140" cy="122" r="2.5" fill="#fef08a" opacity="0.8"/>
  <circle cx="252" cy="118" r="2" fill="#fef08a" opacity="0.6"/>
  <text x="200" y="340" font-family="'PingFang SC','Microsoft YaHei','Noto Sans SC',sans-serif" font-size="44" font-weight="700" fill="#1f2937" text-anchor="middle" letter-spacing="2">工具箱里</text>
  <text x="200" y="362" font-family="'Inter','Segoe UI',sans-serif" font-size="13" fill="#a5b4fc" text-anchor="middle" letter-spacing="3" font-weight="600">INSIDE THE TOOLBOX</text>
</svg>
